<svg width="22" height="36" viewBox="0 0 27 36" fill="none" xmlns="http://www.w3.org/2000/svg">
<path d="M23.1553 12.5193H21.5067V9.22213C21.5067 4.67206 17.8139 0.979248 13.2638 0.979248C8.71373 0.979248 5.02092 4.67206 5.02092 9.22213V12.5193H3.37235C1.55891 12.5193 0.0751953 14.003 0.0751953 15.8164V32.3022C0.0751953 34.1156 1.55891 35.5993 3.37235 35.5993H23.1553C24.9687 35.5993 26.4524 34.1156 26.4524 32.3022V15.8164C26.4524 14.003 24.9687 12.5193 23.1553 12.5193ZM8.31807 9.22213C8.31807 6.48549 10.5272 4.2764 13.2638 4.2764C16.0004 4.2764 18.2095 6.48549 18.2095 9.22213V12.5193H8.31807V9.22213ZM23.1553 32.3022H3.37235V15.8164H23.1553V32.3022ZM13.2638 27.3565C15.0772 27.3565 16.561 25.8727 16.561 24.0593C16.561 22.2459 15.0772 20.7622 13.2638 20.7622C11.4504 20.7622 9.96665 22.2459 9.96665 24.0593C9.96665 25.8727 11.4504 27.3565 13.2638 27.3565Z" fill="black"/>
</svg>
