<svg width="54" height="42" viewBox="0 0 54 42" fill="none" xmlns="http://www.w3.org/2000/svg">
<g clip-path="url(#clip0_80_1334)">
<rect width="53" height="41" transform="translate(0.175293 0.871887)" fill="black"/>
<path d="M52.131 41.3159V41.4213H52.2298C52.2484 41.4216 52.2667 41.417 52.2828 41.4079C52.2893 41.4033 52.2945 41.3973 52.2979 41.3902C52.3014 41.3832 52.303 41.3754 52.3027 41.3676C52.303 41.3599 52.3014 41.3522 52.2979 41.3454C52.2944 41.3385 52.2892 41.3326 52.2828 41.3283C52.2669 41.3188 52.2484 41.3141 52.2298 41.3149H52.131V41.3159ZM52.2309 41.2413C52.2732 41.2388 52.3152 41.2509 52.3496 41.2756C52.3634 41.2868 52.3743 41.3011 52.3816 41.3173C52.3888 41.3335 52.3921 41.3512 52.3912 41.3689C52.3918 41.3841 52.3892 41.3993 52.3834 41.4134C52.3777 41.4276 52.3689 41.4403 52.3578 41.4508C52.3313 41.4738 52.298 41.4875 52.2629 41.4901L52.3954 41.6403H52.2934L52.1715 41.4911H52.132V41.6403H52.0467V41.2416H52.2322L52.2309 41.2413ZM52.2044 41.7778C52.2491 41.7782 52.2935 41.7693 52.3345 41.7515C52.374 41.7345 52.41 41.7103 52.4405 41.6801C52.471 41.6499 52.4954 41.6141 52.5123 41.5747C52.5471 41.4911 52.5471 41.3973 52.5123 41.3138C52.4952 41.2745 52.4708 41.2388 52.4405 41.2084C52.41 41.1782 52.374 41.1539 52.3345 41.137C52.2932 41.1202 52.249 41.1118 52.2044 41.1122C52.159 41.1118 52.114 41.1202 52.0719 41.137C52.0314 41.1536 51.9946 41.1779 51.9635 41.2084C51.9166 41.2562 51.8849 41.3167 51.8723 41.3823C51.8598 41.4479 51.8668 41.5157 51.8927 41.5773C51.9089 41.6168 51.9329 41.6527 51.9635 41.6827C51.9947 41.7132 52.0315 41.7375 52.0719 41.7541C52.1137 41.7719 52.1589 41.7809 52.2044 41.7805M52.2044 41.0163C52.3208 41.0162 52.4327 41.0616 52.5158 41.1428C52.5558 41.1818 52.5877 41.2282 52.6096 41.2795C52.6322 41.3322 52.6439 41.3889 52.6439 41.4462C52.6439 41.5035 52.6322 41.5602 52.6096 41.6129C52.5872 41.6639 52.5554 41.7103 52.5158 41.7496C52.4751 41.7884 52.4278 41.8196 52.3761 41.8418C52.3218 41.8648 52.2634 41.8764 52.2044 41.8761C52.1447 41.8765 52.0855 41.8649 52.0305 41.8418C51.9782 41.8201 51.9305 41.7889 51.8898 41.7496C51.8502 41.7088 51.8188 41.6609 51.7973 41.6084C51.7747 41.5557 51.763 41.499 51.763 41.4417C51.763 41.3844 51.7747 41.3277 51.7973 41.2751C51.8192 41.2238 51.8511 41.1773 51.8911 41.1383C51.9313 41.0984 51.9792 41.067 52.0319 41.0461C52.0869 41.0231 52.146 41.0114 52.2057 41.0118M11.6276 39.4767C11.6276 38.7165 12.1284 38.092 12.947 38.092C13.7293 38.092 14.2572 38.6896 14.2572 39.4767C14.2572 40.2638 13.7293 40.8614 12.947 40.8614C12.1284 40.8614 11.6276 40.2369 11.6276 39.4767ZM15.1489 39.4767V37.3134H14.2031V37.8404C13.9031 37.451 13.4481 37.2067 12.8294 37.2067C11.6104 37.2067 10.6537 38.1574 10.6537 39.4778C10.6537 40.7981 11.6098 41.7488 12.8294 41.7488C13.4479 41.7488 13.9031 41.5043 14.2031 41.1151V41.6403H15.1478V39.4767H15.1489ZM47.1058 39.4767C47.1058 38.7165 47.6066 38.092 48.4255 38.092C49.2085 38.092 49.7356 38.6896 49.7356 39.4767C49.7356 40.2638 49.2085 40.8614 48.4255 40.8614C47.6069 40.8614 47.1058 40.2369 47.1058 39.4767ZM50.6282 39.4767V35.577H49.6816V37.8404C49.3816 37.451 48.9266 37.2067 48.3078 37.2067C47.0888 37.2067 46.1322 38.1574 46.1322 39.4778C46.1322 40.7981 47.0883 41.7488 48.3078 41.7488C48.9266 41.7488 49.3816 41.5043 49.6816 41.1151V41.6403H50.6282V39.4767ZM26.8873 38.0475C27.4968 38.0475 27.8882 38.4275 27.9881 39.0965H25.7314C25.8324 38.472 26.2137 38.0475 26.8876 38.0475M26.9064 37.2043C25.6318 37.2043 24.74 38.1266 24.74 39.4754C24.74 40.8506 25.6675 41.7465 26.9698 41.7465C27.6248 41.7465 28.2248 41.5839 28.7527 41.1404L28.2892 40.4435C27.9245 40.7333 27.4603 40.8959 27.0238 40.8959C26.4143 40.8959 25.8594 40.6153 25.7229 39.8366H28.9525C28.9618 39.7197 28.9713 39.6016 28.9713 39.4751C28.9618 38.1268 28.1233 37.2041 26.9059 37.2041M38.3247 39.4751C38.3247 38.7149 38.8256 38.0905 39.6442 38.0905C40.4265 38.0905 40.9543 38.6881 40.9543 39.4751C40.9543 40.2622 40.4265 40.8598 39.6442 40.8598C38.8256 40.8598 38.3245 40.2353 38.3245 39.4751M41.8458 39.4751V37.3134H40.9005V37.8404C40.5995 37.451 40.1455 37.2067 39.5268 37.2067C38.3078 37.2067 37.3511 38.1574 37.3511 39.4778C37.3511 40.7981 38.3072 41.7488 39.5268 41.7488C40.1455 41.7488 40.5995 41.5043 40.9005 41.1151V41.6403H41.8461V39.4767L41.8458 39.4751ZM32.9837 39.4751C32.9837 40.7871 33.9022 41.7462 35.304 41.7462C35.9591 41.7462 36.3955 41.6013 36.8675 41.2305L36.4133 40.4704C36.0582 40.7241 35.6853 40.8598 35.2738 40.8598C34.5188 40.8506 33.9636 40.3078 33.9636 39.4751C33.9636 38.6425 34.5188 38.0999 35.2738 38.0905C35.6843 38.0905 36.0571 38.2262 36.4133 38.4799L36.8675 37.7197C36.3947 37.349 35.9583 37.2041 35.304 37.2041C33.9022 37.2041 32.9837 38.1629 32.9837 39.4751ZM45.1763 37.2041C44.6307 37.2041 44.2753 37.4578 44.0297 37.8378V37.3134H43.0924V41.6379H44.0392V39.2137C44.0392 38.4981 44.3484 38.1005 44.9667 38.1005C45.1691 38.0976 45.3702 38.1345 45.5582 38.2093L45.8497 37.3229C45.6403 37.2409 45.3674 37.2048 45.1758 37.2048M19.8248 37.6573C19.3698 37.359 18.7428 37.2048 18.0512 37.2048C16.9493 37.2048 16.2399 37.73 16.2399 38.5893C16.2399 39.2944 16.768 39.7294 17.7406 39.8651L18.1874 39.9283C18.706 40.0008 18.9509 40.1365 18.9509 40.3808C18.9509 40.7151 18.6064 40.9059 17.9595 40.9059C17.3044 40.9059 16.8316 40.6978 16.5129 40.4535L16.0684 41.1868C16.5871 41.5668 17.2421 41.748 17.9515 41.748C19.2076 41.748 19.9356 41.1599 19.9356 40.3365C19.9356 39.5763 19.3627 39.1787 18.4161 39.043L17.9704 38.9787C17.5609 38.926 17.2329 38.8441 17.2329 38.5542C17.2329 38.238 17.5421 38.0478 18.061 38.0478C18.6162 38.0478 19.1536 38.2559 19.417 38.4185L19.8264 37.6583L19.8248 37.6573ZM32.0283 37.2056C31.4827 37.2056 31.1273 37.4594 30.8827 37.8393V37.3134H29.9454V41.6379H30.8912V39.2137C30.8912 38.4981 31.2005 38.1005 31.8187 38.1005C32.0212 38.0976 32.2222 38.1345 32.4102 38.2093L32.7017 37.3229C32.4924 37.2409 32.2194 37.2048 32.0278 37.2048M23.9575 37.3134H22.411V36.0015H21.4548V37.3134H20.5727V38.1729H21.4548V40.1457C21.4548 41.1491 21.8465 41.7467 22.9653 41.7467C23.3758 41.7467 23.8486 41.6203 24.1486 41.4124L23.8753 40.6071C23.5931 40.7697 23.2839 40.8516 23.0379 40.8516C22.5652 40.8516 22.411 40.5618 22.411 40.1278V38.1737H23.9575V37.3134ZM9.81736 41.639V38.9249C9.81736 37.9028 9.16228 37.2151 8.10626 37.2059C7.55108 37.1967 6.97842 37.3685 6.57747 37.9753C6.27749 37.4957 5.80473 37.2059 5.14011 37.2059C4.67557 37.2059 4.22162 37.3416 3.86626 37.848V37.3134H2.91968V41.6379H3.87368V39.2401C3.87368 38.4894 4.29238 38.0905 4.93898 38.0905C5.56703 38.0905 5.88476 38.4976 5.88476 39.2306V41.6374H6.84088V39.2396C6.84088 38.4889 7.27734 38.0899 7.90512 38.0899C8.55093 38.0899 8.85912 38.497 8.85912 39.2301V41.6368L9.81736 41.639Z" fill="white"/>
<path d="M52.6702 27.2536V26.6212H52.5046L52.313 27.0552L52.1224 26.6212H51.9563V27.2536H52.0739V26.7772L52.2531 27.1883H52.375L52.5541 26.7762V27.2536H52.6707H52.6702ZM51.6195 27.2536V26.7295H51.8315V26.6228H51.2898V26.7295H51.5018V27.2536H51.6184H51.6195Z" fill="#F79410"/>
<path d="M33.8455 29.9658H19.5127V4.35397H33.8457L33.8455 29.9658Z" fill="#FF5F00"/>
<path d="M20.4213 17.1604C20.4213 11.965 22.8678 7.33696 26.6774 4.35444C23.7937 2.09351 20.227 0.866418 16.5547 0.871813C7.50837 0.871813 0.175293 8.16433 0.175293 17.1604C0.175293 26.1564 7.50837 33.4489 16.5547 33.4489C20.2271 33.4544 23.7939 32.2273 26.6777 29.9663C22.8683 26.9843 20.4213 22.356 20.4213 17.1604Z" fill="#EB001B"/>
<path d="M53.1819 17.1604C53.1819 26.1564 45.8489 33.449 36.8025 33.449C33.1297 33.4543 29.5625 32.2273 26.6782 29.9663C30.4889 26.9838 32.9354 22.356 32.9354 17.1604C32.9354 11.9648 30.4889 7.33702 26.6782 4.3545C29.5625 2.09363 33.1296 0.866574 36.8023 0.871874C45.8486 0.871874 53.1817 8.16439 53.1817 17.1604" fill="#F79E1B"/>
</g>
<defs>
<clipPath id="clip0_80_1334">
<rect width="53" height="41" fill="white" transform="translate(0.175293 0.871887)"/>
</clipPath>
</defs>
</svg>
