<svg width="20" height="19" viewBox="0 0 20 19" fill="none" xmlns="http://www.w3.org/2000/svg">
<path d="M9.02006 3.35382L9.8916 4.90297L10.7631 3.35382C11.5498 1.95561 12.8988 1.11719 14.3878 1.11719C16.6907 1.11719 18.7832 3.29642 18.7832 6.22009C18.7832 7.47993 18.2691 8.81512 17.3986 10.1579C16.5324 11.4938 15.36 12.7655 14.1582 13.8777C12.9602 14.9863 11.7579 15.914 10.853 16.5654C10.4709 16.8404 10.1434 17.065 9.89362 17.2321C9.64357 17.0637 9.31544 16.8371 8.93252 16.5599C8.02724 15.9043 6.82449 14.9717 5.62604 13.8595C4.42375 12.7438 3.25072 11.4701 2.38423 10.1358C1.51288 8.79405 1 7.46571 1 6.22009C1 3.29642 3.09247 1.11719 5.39542 1.11719C6.88438 1.11719 8.23344 1.95561 9.02006 3.35382Z" stroke="#B41ECB" stroke-width="2"/>
</svg>
