<svg width="88" height="19" viewBox="0 0 88 19" fill="none" xmlns="http://www.w3.org/2000/svg">
<path d="M0.728502 1.92824C0.728502 1.5413 0.871503 1.21324 1.1575 0.944063C1.46033 0.674885 1.83045 0.540296 2.26786 0.540296H13.6238C13.6238 1.44877 13.4556 2.1133 13.1191 2.53389C12.7994 2.95448 12.2863 3.16478 11.5797 3.16478H3.75675V7.85856H10.5955C10.5955 8.76704 10.4273 9.43157 10.0908 9.85216C9.77119 10.2727 9.25807 10.483 8.55148 10.483H3.75675V16.1862C3.75675 16.977 3.51281 17.549 3.02492 17.9023C2.55386 18.2555 1.78839 18.4322 0.728502 18.4322V1.92824ZM16.3983 3.92184C15.8431 3.92184 15.3805 3.7536 15.0104 3.41713C14.6402 3.06384 14.4552 2.62642 14.4552 2.10489C14.4552 1.58336 14.6402 1.15436 15.0104 0.817886C15.3805 0.481414 15.8431 0.313177 16.3983 0.313177C16.9535 0.313177 17.4161 0.481414 17.7863 0.817886C18.1564 1.15436 18.3414 1.58336 18.3414 2.10489C18.3414 2.62642 18.1564 3.06384 17.7863 3.41713C17.4161 3.7536 16.9535 3.92184 16.3983 3.92184ZM14.9851 7.17721C14.9851 6.53791 15.2207 6.07526 15.6917 5.78926C16.1628 5.50326 16.8694 5.36026 17.8115 5.36026V16.6152C17.8115 17.2545 17.576 17.7172 17.1049 18.0032C16.6338 18.2892 15.9272 18.4322 14.9851 18.4322V7.17721ZM25.49 18.4322C24.1441 18.4322 23.1346 18.0537 22.4617 17.2966C21.7888 16.5395 21.4523 15.5638 21.4523 14.3693V2.13013C21.4523 1.49083 21.6794 1.02818 22.1336 0.74218C22.6047 0.456178 23.3197 0.313177 24.2787 0.313177V14.2684C24.2787 14.874 24.4048 15.3114 24.6572 15.5806C24.9264 15.833 25.3554 15.9591 25.9442 15.9591C26.6003 15.9591 27.1975 15.7993 27.7359 15.4797C27.8873 15.6142 28.0051 15.7909 28.0892 16.0096C28.1733 16.2115 28.2154 16.4134 28.2154 16.6152C28.2154 17.0863 27.9714 17.5069 27.4835 17.877C27.0125 18.2471 26.348 18.4322 25.49 18.4322ZM30.5723 7.60621C30.5723 6.10891 31.464 5.36026 33.2473 5.36026V6.89962C32.9781 7.20244 32.7846 7.46321 32.6669 7.68192L32.793 7.78286C33.3314 6.99215 33.895 6.39491 34.4838 5.99114C35.0726 5.57055 35.7708 5.36026 36.5783 5.36026C38.042 5.36026 39.0682 6.08367 39.6571 7.5305C40.0945 6.84074 40.6328 6.31079 41.2721 5.94067C41.9114 5.55373 42.6517 5.36026 43.4928 5.36026C44.6537 5.36026 45.5622 5.77244 46.2183 6.59679C46.8912 7.42115 47.2277 8.47262 47.2277 9.75122V16.6152C47.2277 17.2545 47.0006 17.7172 46.5463 18.0032C46.0921 18.2892 45.3939 18.4322 44.4518 18.4322V9.97834C44.4518 9.28857 44.3004 8.75021 43.9976 8.36327C43.6947 7.9595 43.2321 7.75762 42.6096 7.75762C41.9535 7.75762 41.3983 7.98474 40.9441 8.43898C40.5067 8.87639 40.288 9.53251 40.288 10.4073V16.6152C40.288 17.2545 40.0608 17.7172 39.6066 18.0032C39.1524 18.2892 38.4626 18.4322 37.5373 18.4322V9.97834C37.5373 8.49786 36.9316 7.75762 35.7203 7.75762C34.9969 7.75762 34.4165 8.00998 33.9791 8.51468C33.5585 9.01939 33.3482 9.67551 33.3482 10.483V16.6152C33.3482 17.2545 33.1211 17.7172 32.6669 18.0032C32.2126 18.2892 31.5144 18.4322 30.5723 18.4322V7.60621ZM76.5826 7.60621C76.5826 6.10891 77.4826 5.36026 79.2828 5.36026V6.89962C79.0809 7.11832 78.8874 7.37909 78.7023 7.68192L78.8538 7.78286C79.3416 7.04262 79.9809 6.45379 80.7716 6.01638C81.5792 5.57897 82.4624 5.36026 83.4214 5.36026C84.2962 5.36026 85.0617 5.55373 85.7178 5.94067C86.3739 6.31079 86.8786 6.83232 87.2319 7.50527C87.602 8.17821 87.7871 8.92686 87.7871 9.75122V16.6152C87.7871 17.2545 87.5516 17.7172 87.0805 18.0032C86.6094 18.2892 85.9028 18.4322 84.9607 18.4322V10.1297C84.9607 9.43998 84.7504 8.8848 84.3298 8.46421C83.9261 8.0268 83.3288 7.80809 82.5381 7.80809C81.6633 7.80809 80.9231 8.08568 80.3174 8.64086C79.7118 9.17922 79.4089 9.84375 79.4089 10.6345V16.6152C79.4089 17.2545 79.1734 17.7172 78.7023 18.0032C78.2481 18.2892 77.5415 18.4322 76.5826 18.4322V7.60621Z" fill="black"/>
<path d="M55.3363 18.4322C54.2596 18.4322 53.2839 18.2387 52.409 17.8518C51.551 17.448 50.8697 16.9012 50.365 16.2115C49.8771 15.5217 49.6331 14.7394 49.6331 13.8646V10.1297C49.6331 9.2381 49.8771 8.43057 50.365 7.70715C50.8528 6.98374 51.5258 6.41173 52.3838 5.99114C53.2586 5.57055 54.2428 5.36026 55.3363 5.36026C56.4299 5.36026 57.4056 5.57055 58.2636 5.99114C59.1385 6.41173 59.8198 6.98374 60.3077 7.70715C60.7956 8.43057 61.0395 9.2381 61.0395 10.1297V13.8646C61.0395 14.7394 60.7872 15.5217 60.2825 16.2115C59.7946 16.9012 59.1132 17.448 58.2384 17.8518C57.3804 18.2387 56.413 18.4322 55.3363 18.4322ZM55.3363 15.9844C56.228 15.9844 56.9346 15.7825 57.4561 15.3787C57.9776 14.9581 58.2384 14.3945 58.2384 13.6879V10.2559C58.2384 9.51569 57.9776 8.91845 57.4561 8.46421C56.9346 8.00998 56.228 7.78286 55.3363 7.78286C54.4447 7.78286 53.7381 8.00998 53.2166 8.46421C52.695 8.91845 52.4343 9.51569 52.4343 10.2559V13.6879C52.4343 14.3945 52.695 14.9581 53.2166 15.3787C53.7381 15.7825 54.4447 15.9844 55.3363 15.9844ZM68.2744 18.4322C67.1977 18.4322 66.2219 18.2387 65.3471 17.8518C64.4891 17.448 63.8077 16.9012 63.303 16.2115C62.8151 15.5217 62.5712 14.7394 62.5712 13.8646V10.1297C62.5712 9.2381 62.8151 8.43057 63.303 7.70715C63.7909 6.98374 64.4639 6.41173 65.3219 5.99114C66.1967 5.57055 67.1809 5.36026 68.2744 5.36026C69.3679 5.36026 70.3437 5.57055 71.2017 5.99114C72.0765 6.41173 72.7579 6.98374 73.2458 7.70715C73.7337 8.43057 73.9776 9.2381 73.9776 10.1297V13.8646C73.9776 14.7394 73.7253 15.5217 73.2205 16.2115C72.7327 16.9012 72.0513 17.448 71.1765 17.8518C70.3185 18.2387 69.3511 18.4322 68.2744 18.4322ZM68.2744 15.9844C69.1661 15.9844 69.8726 15.7825 70.3942 15.3787C70.9157 14.9581 71.1765 14.3945 71.1765 13.6879V10.2559C71.1765 9.51569 70.9157 8.91845 70.3942 8.46421C69.8726 8.00998 69.1661 7.78286 68.2744 7.78286C67.3828 7.78286 66.6762 8.00998 66.1546 8.46421C65.6331 8.91845 65.3723 9.51569 65.3723 10.2559V13.6879C65.3723 14.3945 65.6331 14.9581 66.1546 15.3787C66.6762 15.7825 67.3828 15.9844 68.2744 15.9844Z" fill="#0D3A56"/>
</svg>
