<svg width="20" height="20" viewBox="0 0 20 20" fill="none" xmlns="http://www.w3.org/2000/svg">
<path d="M9.02006 4.08233L9.8916 5.63148L10.7631 4.08233C11.5498 2.68413 12.8988 1.8457 14.3878 1.8457C16.6907 1.8457 18.7832 4.02493 18.7832 6.94861C18.7832 8.20845 18.2691 9.54364 17.3986 10.8864C16.5324 12.2224 15.36 13.494 14.1582 14.6062C12.9602 15.7149 11.7579 16.6425 10.853 17.2939C10.4709 17.5689 10.1434 17.7936 9.89362 17.9606C9.64357 17.7922 9.31544 17.5656 8.93252 17.2884C8.02724 16.6329 6.82449 15.7002 5.62604 14.588C4.42375 13.4723 3.25072 12.1986 2.38423 10.8643C1.51288 9.52256 1 8.19423 1 6.94861C1 4.02493 3.09247 1.8457 5.39542 1.8457C6.88438 1.8457 8.23344 2.68413 9.02006 4.08233Z" stroke="white" stroke-width="2"/>
</svg>
