<svg width="21" height="19" viewBox="0 0 21 19" fill="none" xmlns="http://www.w3.org/2000/svg">
<path d="M9.38725 3.73175L10.2588 5.2809L11.1303 3.73175C11.917 2.33354 13.266 1.49512 14.755 1.49512C17.0579 1.49512 19.1504 3.67435 19.1504 6.59802C19.1504 7.85786 18.6363 9.19305 17.7657 10.5358C16.8996 11.8718 15.7271 13.1434 14.5254 14.2556C13.3274 15.3643 12.1251 16.2919 11.2201 16.9433C10.8381 17.2183 10.5106 17.443 10.2608 17.61C10.0108 17.4416 9.68263 17.215 9.29971 16.9378C8.39443 16.2823 7.19168 15.3497 5.99323 14.2375C4.79094 13.1217 3.6179 11.848 2.75142 10.5138C1.88007 9.17198 1.36719 7.84364 1.36719 6.59802C1.36719 3.67435 3.45965 1.49512 5.76261 1.49512C7.25157 1.49512 8.60063 2.33354 9.38725 3.73175Z" stroke="white" stroke-width="2"/>
</svg>
