<svg width="19" height="19" viewBox="0 0 19 19" fill="none" xmlns="http://www.w3.org/2000/svg">
<path d="M9.66234 0.0859375C4.56082 0.0859375 0.429688 4.22631 0.429688 9.32784C0.429688 14.4294 4.56082 18.5697 9.66234 18.5697C14.7731 18.5697 18.9135 14.4294 18.9135 9.32784C18.9135 4.22631 14.7731 0.0859375 9.66234 0.0859375ZM16.067 5.63108H13.3406C13.0514 4.48643 12.6231 3.3815 12.0652 2.34096C13.7511 2.92135 15.1716 4.08927 16.067 5.63108ZM9.67159 1.97128C10.4387 3.08031 11.0394 4.30948 11.4368 5.63108H7.90638C8.30378 4.30948 8.90451 3.08031 9.67159 1.97128ZM2.51836 11.1762C2.37049 10.5847 2.27807 9.96553 2.27807 9.32784C2.27807 8.69014 2.37049 8.07094 2.51836 7.47946H5.64212C5.56818 8.08942 5.51273 8.69939 5.51273 9.32784C5.51273 9.95628 5.56818 10.5662 5.64212 11.1762H2.51836ZM3.27619 13.0246H6.00255C6.29829 14.1798 6.72342 15.2889 7.27793 16.3147C5.59033 15.7375 4.1688 14.5688 3.27619 13.0246ZM6.00255 5.63108H3.27619C4.1688 4.08692 5.59033 2.91818 7.27793 2.34096C6.72012 3.3815 6.2918 4.48643 6.00255 5.63108ZM9.67159 16.6844C8.90451 15.5754 8.30378 14.3462 7.90638 13.0246H11.4368C11.0394 14.3462 10.4387 15.5754 9.67159 16.6844ZM11.8342 11.1762H7.50898C7.4258 10.5662 7.36111 9.95628 7.36111 9.32784C7.36111 8.69939 7.4258 8.08018 7.50898 7.47946H11.8342C11.9174 8.08018 11.9821 8.69939 11.9821 9.32784C11.9821 9.95628 11.9174 10.5662 11.8342 11.1762ZM12.0652 16.3147C12.6198 15.2889 13.0449 14.1798 13.3406 13.0246H16.067C15.1716 14.5664 13.7511 15.7343 12.0652 16.3147ZM13.7011 11.1762C13.775 10.5662 13.8304 9.95628 13.8304 9.32784C13.8304 8.69939 13.775 8.08942 13.7011 7.47946H16.8248C16.9727 8.07094 17.0651 8.69014 17.0651 9.32784C17.0651 9.96553 16.9727 10.5847 16.8248 11.1762H13.7011Z" fill="white"/>
</svg>
