<svg width="21" height="20" viewBox="0 0 21 20" fill="none" xmlns="http://www.w3.org/2000/svg">
<path d="M10.1384 0C4.61844 0 0.148438 4.48 0.148438 10C0.148438 15.52 4.61844 20 10.1384 20C15.6684 20 20.1484 15.52 20.1484 10C20.1484 4.48 15.6684 0 10.1384 0ZM17.0684 6H14.1184C13.8055 4.76146 13.342 3.5659 12.7384 2.44C14.5626 3.068 16.0996 4.33172 17.0684 6ZM10.1484 2.04C10.9784 3.24 11.6284 4.57 12.0584 6H8.23844C8.66844 4.57 9.31844 3.24 10.1484 2.04ZM2.40844 12C2.24844 11.36 2.14844 10.69 2.14844 10C2.14844 9.31 2.24844 8.64 2.40844 8H5.78844C5.70844 8.66 5.64844 9.32 5.64844 10C5.64844 10.68 5.70844 11.34 5.78844 12H2.40844ZM3.22844 14H6.17844C6.49844 15.25 6.95844 16.45 7.55844 17.56C5.73241 16.9354 4.19427 15.6708 3.22844 14ZM6.17844 6H3.22844C4.19427 4.32918 5.73241 3.06457 7.55844 2.44C6.95486 3.5659 6.49142 4.76146 6.17844 6ZM10.1484 17.96C9.31844 16.76 8.66844 15.43 8.23844 14H12.0584C11.6284 15.43 10.9784 16.76 10.1484 17.96ZM12.4884 12H7.80844C7.71844 11.34 7.64844 10.68 7.64844 10C7.64844 9.32 7.71844 8.65 7.80844 8H12.4884C12.5784 8.65 12.6484 9.32 12.6484 10C12.6484 10.68 12.5784 11.34 12.4884 12ZM12.7384 17.56C13.3384 16.45 13.7984 15.25 14.1184 14H17.0684C16.0996 15.6683 14.5626 16.932 12.7384 17.56ZM14.5084 12C14.5884 11.34 14.6484 10.68 14.6484 10C14.6484 9.32 14.5884 8.66 14.5084 8H17.8884C18.0484 8.64 18.1484 9.31 18.1484 10C18.1484 10.69 18.0484 11.36 17.8884 12H14.5084Z" fill="white"/>
</svg>
